<svg
        class="mobile-invisible"
        width="424"
        height="449"
        viewBox="0 0 424 449"
        fill="none"
        xmlns="http://www.w3.org/2000/svg"
>
    <path
            d="M417.467 13L417.467 281.531C417.467 298.118 404.006 311.574 387.418 311.566L40.2978 311.413C23.7084 311.406 10.2464 324.864 10.2493 341.454L10.265 433"
            stroke="#D1E1F3"
            stroke-width="4"
            stroke-miterlimit="1"
            stroke-linecap="square"
            stroke-linejoin="bevel"
            stroke-dasharray="3 10"
    />
    <path
            d="M412.558 6.28655C412.558 8.88946 414.742 11.0731 417.529 11.0731C420.316 11.0731 422.5 8.88946 422.5 6.28655C422.5 3.68365 420.316 1.5 417.529 1.5C414.742 1.5 412.558 3.68365 412.558 6.28655Z"
            stroke="#D1E1F3"
            stroke-width="3"
    />
    <path
            d="M20 438.333L17.6666 436L9.99997 443.667L2.33331 436L-2.29902e-05 438.333L9.99997 448.333L20 438.333Z"
            fill="#D1E1F3"
    />
</svg>