<svg
        class="mobile-invisible"
        width="424"
        height="274"
        viewBox="0 0 424 274"
        fill="none"
        xmlns="http://www.w3.org/2000/svg"
>
    <path
            d="M6.5549 17.8116L6.53822 115.525C6.53539 132.115 19.9973 145.573 36.5868 145.566L383.702 145.413C400.291 145.405 413.753 158.864 413.751 175.453L413.735 267"
            stroke="#D1E1F3"
            stroke-width="4"
            stroke-miterlimit="1"
            stroke-linecap="square"
            stroke-linejoin="bevel"
            stroke-dasharray="3 10"
    />
    <path
            d="M11.4424 6.28655C11.4424 8.88946 9.25793 11.0731 6.47119 11.0731C3.68445 11.0731 1.5 8.88946 1.5 6.28655C1.5 3.68365 3.68445 1.5 6.47119 1.5C9.25793 1.5 11.4424 3.68365 11.4424 6.28655Z"
            stroke="#D1E1F3"
            stroke-width="3"
    />
    <path
            d="M424 263.333L421.667 261L414 268.667L406.333 261L404 263.333L414 273.333L424 263.333Z"
            fill="#D1E1F3"
    />
</svg>