<svg
        width="22"
        height="22"
        viewBox="0 0 22 22"
        fill="none"
        xmlns="http://www.w3.org/2000/svg"
>
    <g clip-path="url(#clip0_alg)">
        <path
                d="M19.4307 14.887C18.6286 14.887 17.9448 15.4014 17.6907 16.1177H16.3545V6.60023H17.6907C17.9448 7.31654 18.6286 7.83094 19.4307 7.83094C20.4484 7.83094 21.2764 7.00278 21.2764 5.98488C21.2764 4.96698 20.4484 4.13882 19.4307 4.13882C18.6286 4.13882 17.9448 4.65321 17.6907 5.36952H15.7393C15.3994 5.36952 15.124 5.64499 15.124 5.98488V10.7436H13.9024L11.3916 8.23236V4.54905H12.417C12.6439 4.54905 12.8523 4.42406 12.9595 4.22407C13.0665 4.02392 13.0548 3.78114 12.9289 3.59237L11.2883 1.13096C11.1742 0.959813 10.9821 0.856934 10.7764 0.856934C10.5706 0.856934 10.3785 0.959813 10.2645 1.13096L8.62385 3.59237C8.49808 3.78114 8.48622 4.02392 8.59325 4.22407C8.70043 4.42406 8.90887 4.54905 9.13574 4.54905H10.1611V8.23236L7.65037 10.7436H6.42871V5.98488C6.42871 5.64499 6.1533 5.36952 5.81348 5.36952H3.96777V4.75417C3.96777 4.41428 3.69236 4.13882 3.35254 4.13882H0.891602C0.551781 4.13882 0.276367 4.41428 0.276367 4.75417V7.21558C0.276367 7.55547 0.551781 7.83094 0.891602 7.83094H3.35254C3.69236 7.83094 3.96777 7.55547 3.96777 7.21558V6.60023H5.19824V16.1177H3.96777V15.5023C3.96777 15.1625 3.69236 14.887 3.35254 14.887H0.891602C0.551781 14.887 0.276367 15.1625 0.276367 15.5023V17.9638C0.276367 18.3036 0.551781 18.5791 0.891602 18.5791H3.35254C3.69236 18.5791 3.96777 18.3036 3.96777 17.9638V17.3484H5.81348C6.1533 17.3484 6.42871 17.0729 6.42871 16.733V11.9743H7.65037L10.1611 14.4856V18.598L8.62385 20.9043C8.49808 21.0931 8.48622 21.3359 8.59325 21.536C8.70043 21.736 8.90887 21.861 9.13574 21.861H12.417C12.6439 21.861 12.8525 21.736 12.9595 21.536C13.0665 21.3359 13.0548 21.0931 12.9289 20.9043L11.3916 18.598V14.4856L13.9024 11.9743H15.124V16.733C15.124 17.0729 15.3994 17.3484 15.7393 17.3484H17.6907C17.9448 18.0647 18.6286 18.5791 19.4307 18.5791C20.4484 18.5791 21.2764 17.7509 21.2764 16.733C21.2764 15.7152 20.4484 14.887 19.4307 14.887ZM19.4307 5.36952C19.7698 5.36952 20.0459 5.64563 20.0459 5.98488C20.0459 6.32412 19.7698 6.60023 19.4307 6.60023C19.0915 6.60023 18.8154 6.32412 18.8154 5.98488C18.8154 5.64563 19.0915 5.36952 19.4307 5.36952ZM10.7764 2.58169L11.2674 3.31835H10.2853L10.7764 2.58169ZM2.7373 6.60023H1.50684V5.36952H2.7373V6.60023ZM2.7373 17.3484H1.50684V16.1177H2.7373V17.3484ZM10.2853 20.6303L10.7764 19.8936L11.2674 20.6303H10.2853ZM10.7764 13.3603L8.77541 11.359L10.7764 9.35762L12.7773 11.359L10.7764 13.3603ZM19.4307 17.3484C19.0915 17.3484 18.8154 17.0723 18.8154 16.733C18.8154 16.3938 19.0915 16.1177 19.4307 16.1177C19.7698 16.1177 20.0459 16.3938 20.0459 16.733C20.0459 17.0723 19.7698 17.3484 19.4307 17.3484Z"
                fill="white"
        />
    </g>
    <defs>
        <clipPath id="clip0_alg">
            <rect
                    width="21"
                    height="21.0041"
                    fill="white"
                    transform="translate(0.276367 0.856934)"
            />
        </clipPath>
    </defs>
</svg>