<svg
        width="24"
        height="24"
        viewBox="0 0 24 24"
        fill="none"
        xmlns="http://www.w3.org/2000/svg"
>
    <path
            d="M4.42299 13.264C3.72701 13.264 3.15899 13.831 3.15899 14.528C3.15899 15.219 3.726 15.792 4.42299 15.792C5.11398 15.792 5.68698 15.22 5.68698 14.528C5.68698 13.831 5.11398 13.264 4.42299 13.264ZM4.42299 18.313C3.72701 18.313 3.15899 18.885 3.15899 19.577C3.15899 20.2729 3.726 20.841 4.42299 20.841C5.11398 20.841 5.68698 20.274 5.68698 19.577C5.68698 18.886 5.11398 18.313 4.42299 18.313ZM4.42299 8.20899C3.72701 8.20899 3.15899 8.78098 3.15899 9.47299C3.15899 10.169 3.726 10.737 4.42299 10.737C5.11398 10.737 5.68698 10.17 5.68698 9.47299C5.68698 8.78098 5.11398 8.20899 4.42299 8.20899ZM0.631999 8.84099C0.279004 8.84099 0 9.11999 0 9.47299C0 9.82598 0.279004 10.105 0.631999 10.105C0.984993 10.105 1.264 9.82598 1.264 9.47299C1.264 9.11999 0.983988 8.84099 0.631999 8.84099ZM4.42299 3.15899C3.72701 3.15899 3.15899 3.726 3.15899 4.42299C3.15899 5.11398 3.726 5.68698 4.42299 5.68698C5.11398 5.68698 5.68698 5.11499 5.68698 4.42299C5.68698 3.72701 5.11398 3.15899 4.42299 3.15899ZM23.368 10.104C23.721 10.104 24 9.82498 24 9.47198C24 9.11899 23.721 8.83998 23.368 8.83998C23.015 8.83998 22.736 9.11899 22.736 9.47198C22.736 9.82498 23.016 10.104 23.368 10.104ZM14.527 5.68698C15.218 5.68698 15.791 5.11499 15.791 4.42299C15.791 3.72701 15.219 3.15899 14.527 3.15899C13.831 3.15899 13.263 3.726 13.263 4.42299C13.264 5.11398 13.831 5.68698 14.527 5.68698ZM14.527 1.264C14.88 1.264 15.159 0.984993 15.159 0.631999C15.159 0.279004 14.88 0 14.527 0C14.174 0 13.895 0.279004 13.895 0.631999C13.895 0.984993 14.175 1.264 14.527 1.264ZM0.631999 13.896C0.279004 13.896 0 14.175 0 14.527C0 14.879 0.279004 15.159 0.631999 15.159C0.984993 15.159 1.264 14.88 1.264 14.527C1.264 14.174 0.983988 13.896 0.631999 13.896ZM9.47299 22.736C9.11999 22.736 8.84099 23.015 8.84099 23.368C8.84099 23.721 9.11999 24 9.47299 24C9.82598 24 10.105 23.721 10.105 23.368C10.105 23.015 9.82498 22.736 9.47299 22.736ZM9.47299 1.264C9.82598 1.264 10.105 0.984993 10.105 0.631999C10.105 0.279004 9.82498 0 9.47299 0C9.121 0 8.84099 0.279004 8.84099 0.631999C8.84099 0.984993 9.11999 1.264 9.47299 1.264ZM9.47299 5.68698C10.169 5.68698 10.737 5.11499 10.737 4.42299C10.737 3.72701 10.17 3.15899 9.47299 3.15899C8.78199 3.15899 8.20899 3.726 8.20899 4.42299C8.20899 5.11398 8.78098 5.68698 9.47299 5.68698ZM9.47299 12.632C8.42301 12.632 7.57699 13.478 7.57699 14.528C7.57699 15.578 8.42301 16.424 9.47299 16.424C10.523 16.424 11.369 15.578 11.369 14.528C11.369 13.478 10.522 12.632 9.47299 12.632ZM19.577 13.264C18.886 13.264 18.313 13.831 18.313 14.528C18.313 15.219 18.885 15.792 19.577 15.792C20.2729 15.792 20.841 15.22 20.841 14.528C20.841 13.831 20.273 13.264 19.577 13.264ZM19.577 18.313C18.886 18.313 18.313 18.885 18.313 19.577C18.313 20.2729 18.885 20.841 19.577 20.841C20.2729 20.841 20.841 20.274 20.841 19.577C20.841 18.886 20.273 18.313 19.577 18.313ZM19.577 8.20899C18.886 8.20899 18.313 8.78098 18.313 9.47299C18.313 10.169 18.885 10.737 19.577 10.737C20.2729 10.737 20.841 10.17 20.841 9.47299C20.841 8.78098 20.273 8.20899 19.577 8.20899ZM19.577 3.15899C18.886 3.15899 18.313 3.726 18.313 4.42299C18.313 5.11398 18.885 5.68698 19.577 5.68698C20.2729 5.68698 20.841 5.11499 20.841 4.42299C20.841 3.72701 20.273 3.15899 19.577 3.15899ZM23.368 13.896C23.015 13.896 22.736 14.175 22.736 14.528C22.736 14.881 23.015 15.16 23.368 15.16C23.721 15.16 24 14.88 24 14.527C24 14.174 23.721 13.896 23.368 13.896ZM14.527 18.313C13.831 18.313 13.263 18.885 13.263 19.577C13.263 20.2729 13.83 20.841 14.527 20.841C15.218 20.841 15.791 20.274 15.791 19.577C15.791 18.886 15.219 18.313 14.527 18.313ZM14.527 22.736C14.174 22.736 13.895 23.015 13.895 23.368C13.895 23.721 14.175 24 14.527 24C14.879 24 15.159 23.721 15.159 23.368C15.159 23.015 14.88 22.736 14.527 22.736ZM9.47299 7.57699C8.42301 7.57699 7.57699 8.42301 7.57699 9.47299C7.57699 10.523 8.42301 11.369 9.47299 11.369C10.523 11.369 11.369 10.523 11.369 9.47299C11.369 8.42301 10.522 7.57699 9.47299 7.57699ZM9.47299 18.313C8.78199 18.313 8.20899 18.885 8.20899 19.577C8.20899 20.2729 8.78098 20.841 9.47299 20.841C10.169 20.841 10.737 20.274 10.737 19.577C10.736 18.886 10.169 18.313 9.47299 18.313ZM14.527 12.632C13.477 12.632 12.631 13.478 12.631 14.528C12.631 15.578 13.477 16.424 14.527 16.424C15.5769 16.424 16.423 15.578 16.423 14.528C16.423 13.478 15.577 12.632 14.527 12.632ZM14.527 7.57699C13.477 7.57699 12.631 8.42301 12.631 9.47299C12.631 10.523 13.477 11.369 14.527 11.369C15.5769 11.369 16.423 10.523 16.423 9.47299C16.423 8.42301 15.577 7.57699 14.527 7.57699Z"
            fill="white"
    />
</svg>