<svg
        width="22"
        height="15"
        viewBox="0 0 22 15"
        fill="none"
        xmlns="http://www.w3.org/2000/svg"
>
    <path
            d="M11.6518 11.1102L11.6518 11.1103C11.2932 11.4708 10.7098 11.4718 10.3501 11.112L7.92308 8.6847L2.41925 14.1894L11.6518 11.1102ZM11.6518 11.1102L19.3115 3.40642M11.6518 11.1102L19.3115 3.40642M19.3115 3.40642V4.25559C19.3115 4.76337 19.723 5.17497 20.2308 5.17497C20.7385 5.17497 21.15 4.76337 21.15 4.25559V1.17807V1.17805V1.17804V1.17802V1.17801V1.17799V1.17797V1.17796V1.17794V1.17792V1.17791V1.17789V1.17787V1.17786V1.17784V1.17783V1.17781V1.17779V1.17778V1.17776V1.17775V1.17773V1.17771V1.1777V1.17768V1.17767V1.17765V1.17764V1.17762V1.17761V1.17759V1.17758V1.17756V1.17755V1.17753V1.17752V1.1775V1.17749V1.17747V1.17746V1.17744V1.17742V1.17741V1.17739V1.17738V1.17736V1.17735V1.17733V1.17732V1.1773V1.17729V1.17727V1.17726V1.17724V1.17723V1.17721V1.1772V1.17718V1.17717V1.17715V1.17714V1.17712V1.17711V1.17709V1.17707V1.17685C21.1493 0.693707 20.7675 0.274373 20.2569 0.259755L20.2569 0.259693H20.2542C20.2537 0.259665 20.2531 0.25962 20.2521 0.259553L20.2515 0.259509C20.2481 0.259273 20.2399 0.258691 20.2308 0.258691H17.1538C16.6461 0.258691 16.2346 0.670294 16.2346 1.17807C16.2346 1.68585 16.6461 2.09745 17.1538 2.09745H18.0203L10.9983 9.15992L8.57306 6.7344C8.57305 6.73439 8.57303 6.73438 8.57302 6.73436C8.21413 6.37521 7.63216 6.37527 7.27313 6.73437L1.11932 12.8894C1.11931 12.8894 1.1193 12.8894 1.11928 12.8894C0.760207 13.2483 0.76027 13.8304 1.11928 14.1895C1.29861 14.369 1.5342 14.4588 1.76923 14.4588C2.00426 14.4588 2.23985 14.369 2.41918 14.1895L19.3115 3.40642Z"
            fill="white"
            stroke="white"
            stroke-width="0.3"
    />
</svg>