<svg
        width="21"
        height="21"
        viewBox="0 0 21 21"
        fill="none"
        xmlns="http://www.w3.org/2000/svg"
>
    <g clip-path="url(#clip0_filter)">
        <path
                d="M20.2197 0H0.861267C0.408173 0 0.0409546 0.367218 0.0409546 0.820313C0.0409546 3.10469 1.0202 5.28557 2.72764 6.80331L6.32019 9.99644C6.94312 10.5502 7.3004 11.3458 7.3004 12.1794V20.1787C7.3004 20.8324 8.03099 21.2243 8.57557 20.8611L13.4153 17.6348C13.6434 17.4826 13.7806 17.2266 13.7806 16.9523V12.1794C13.7806 11.3458 14.1378 10.5502 14.7608 9.99644L18.3532 6.80331C20.0606 5.28557 21.0398 3.10469 21.0398 0.820313C21.0398 0.367218 20.6726 0 20.2197 0ZM17.2632 5.57701L13.6708 8.7703C12.698 9.63515 12.1399 10.8776 12.1399 12.1792V16.5133L8.94087 18.6459V12.1794C8.94087 10.8776 8.38283 9.63515 7.40999 8.7703L3.8176 5.57717C2.66628 4.55354 1.93136 3.15099 1.73461 1.64047H19.3462C19.1494 3.15099 18.4147 4.55354 17.2632 5.57701Z"
                fill="white"
        />
    </g>
    <defs>
        <clipPath id="clip0_filter">
            <rect width="21" height="21" fill="white" />
        </clipPath>
    </defs>
</svg>