<svg
        width="24"
        height="25"
        viewBox="0 0 24 25"
        fill="none"
        xmlns="http://www.w3.org/2000/svg"
>
    <g clip-path="url(#clip0_smile)">
        <path
                d="M20.4896 3.89117C15.8081 -0.79166 8.19144 -0.791659 3.51088 3.89004C-1.17059 8.57174 -1.17014 16.1901 3.51133 20.8727C8.19144 25.5542 15.8081 25.5542 20.4891 20.8718C25.1701 16.1901 25.1699 8.57219 20.4896 3.89117ZM19.1796 19.5625C15.2209 23.5219 8.77934 23.5224 4.82041 19.5629C0.860804 15.6028 0.861256 9.1593 4.82041 5.19983C8.77911 1.24058 15.2204 1.24013 19.18 5.20028C23.1387 9.15975 23.1383 15.6032 19.1796 19.5625ZM7.52185 9.13146C7.52185 8.35649 8.15026 7.72797 8.92507 7.72797C9.69966 7.72797 10.3281 8.35627 10.3281 9.13146C10.3281 9.90687 9.69966 10.5352 8.92507 10.5352C8.15026 10.5352 7.52185 9.90687 7.52185 9.13146ZM13.8844 9.13146C13.8844 8.35649 14.5133 7.72797 15.2881 7.72797C16.0627 7.72797 16.6911 8.35627 16.6911 9.13146C16.6911 9.90687 16.0629 10.5352 15.2881 10.5352C14.5133 10.5352 13.8844 9.90687 13.8844 9.13146ZM17.2018 14.8796C16.3322 16.8911 14.2956 18.1907 12.0137 18.1907C9.68269 18.1907 7.63409 16.8845 6.79456 14.8629C6.65064 14.5168 6.8147 14.1194 7.16115 13.9754C7.24623 13.9404 7.33448 13.9236 7.42138 13.9236C7.68749 13.9236 7.94003 14.0809 8.04843 14.3423C8.67683 15.8556 10.2332 16.8329 12.0137 16.8329C13.7539 16.8329 15.3012 15.8549 15.9556 14.3407C16.1045 13.9965 16.5042 13.8378 16.8481 13.987C17.1921 14.1361 17.3507 14.5356 17.2018 14.8796Z"
                fill="white"
        />
    </g>
    <defs>
        <clipPath id="clip0_smile">
            <rect
                    width="24"
                    height="24.0046"
                    fill="white"
                    transform="translate(0 0.378906)"
            />
        </clipPath>
    </defs>
</svg>