<svg
        width="23"
        height="23"
        viewBox="0 0 23 23"
        fill="none"
        xmlns="http://www.w3.org/2000/svg"
>
    <g clip-path="url(#clip0_dash)">
        <path
                d="M19.5205 6.30156C19.2285 6.00953 18.7702 5.96647 18.4288 6.1991C17.143 7.07575 10.6932 11.4839 10 12.1772C8.99479 13.1827 8.99479 14.8185 10 15.824C10.5026 16.3266 11.1629 16.578 11.823 16.578C12.4832 16.578 13.1434 16.3266 13.6461 15.824C14.3392 15.1307 18.7465 8.67965 19.623 7.39352C19.8555 7.05215 19.8125 6.59367 19.5205 6.30156ZM12.4307 14.6084C12.0956 14.9436 11.5504 14.9436 11.2154 14.6084C10.8803 14.2733 10.8803 13.7281 11.2152 13.393C11.4845 13.1268 13.3157 11.8205 15.5688 10.2542C14.0027 12.5076 12.6967 14.3391 12.4307 14.6084Z"
                fill="white"
        />
        <path
                d="M4.7858 17.9981L3.72491 18.5157C2.94863 17.13 2.5415 15.5834 2.5415 14.0002C2.5415 12.8402 2.75536 11.7292 3.14564 10.7046L4.36127 11.2878C4.48116 11.3453 4.6077 11.3725 4.73235 11.3725C5.0526 11.3725 5.36004 11.1927 5.50781 10.8845C5.71303 10.4565 5.53256 9.94305 5.10459 9.73775L3.90439 9.16195C5.39613 6.72858 7.97714 5.03206 10.9634 4.75658V6.04938C10.9634 6.5241 11.3482 6.90892 11.8228 6.90892C12.2974 6.90892 12.6822 6.5241 12.6822 6.04938V4.75594C13.706 4.84915 14.6967 5.10994 15.6372 5.53455C16.0697 5.72988 16.5787 5.53739 16.774 5.10483C16.9693 4.67213 16.7769 4.16307 16.3443 3.96774C14.9192 3.32433 13.3979 2.99805 11.8228 2.99805C8.88455 2.99805 6.12222 4.14244 4.04455 6.22047C1.96697 8.29854 0.822754 11.0614 0.822754 14.0002C0.822754 16.1718 1.4672 18.2839 2.68644 20.1079C2.85066 20.3535 3.12218 20.4898 3.40139 20.4898C3.52832 20.4898 3.65689 20.4616 3.77767 20.4027L5.53939 19.5431C5.96598 19.335 6.1431 18.8204 5.935 18.3938C5.72691 17.9671 5.2124 17.79 4.7858 17.9981Z"
                fill="white"
        />
        <path
                d="M21.8532 9.47783C21.6579 9.04518 21.149 8.85264 20.7163 9.04806C20.2837 9.24339 20.0914 9.75245 20.2867 10.1851C20.829 11.3867 21.104 12.6702 21.104 14.0002C21.104 15.5858 20.6955 17.1349 19.917 18.5222L18.8094 17.9946C18.3809 17.7906 17.8681 17.9725 17.664 18.4012C17.4599 18.8297 17.6419 19.3427 18.0704 19.5467L19.8751 20.4063C19.9938 20.4628 20.1197 20.4898 20.2441 20.4898C20.5234 20.4898 20.795 20.3534 20.959 20.1079C22.1783 18.2839 22.8227 16.1718 22.8227 14.0002C22.8227 12.4247 22.4965 10.9032 21.8532 9.47783Z"
                fill="white"
        />
    </g>
    <defs>
        <clipPath id="clip0_dash">
            <rect
                    width="22"
                    height="22.0043"
                    fill="white"
                    transform="translate(0.822754 0.742188)"
            />
        </clipPath>
    </defs>
</svg>